<svg width="32" height="32" viewBox="0 0 32 32" fill="none" xmlns="http://www.w3.org/2000/svg">
<path d="M15.8645 0.00897217C7.7605 0.00897217 8.2665 3.53713 8.2665 3.53713L8.2755 7.19241H16.009V8.28982H5.20387C5.20387 8.28982 0.0181198 7.69939 0.0181198 15.9083C0.0181198 24.1175 4.54437 23.8264 4.54437 23.8264H7.24562V20.017C7.24562 20.017 7.1 15.473 11.6996 15.473H19.3699C19.3699 15.473 23.6792 15.5429 23.6792 11.2918V4.26284C23.6792 4.26284 24.3337 0.00897217 15.8645 0.00897217ZM11.6002 2.46707C11.783 2.46691 11.964 2.50292 12.1328 2.57306C12.3017 2.64319 12.4552 2.74606 12.5844 2.87579C12.7136 3.00552 12.8161 3.15956 12.8859 3.32909C12.9558 3.49862 12.9917 3.68032 12.9915 3.86378C12.9917 4.04724 12.9558 4.22894 12.8859 4.39847C12.8161 4.568 12.7136 4.72204 12.5844 4.85177C12.4552 4.9815 12.3017 5.08437 12.1328 5.1545C11.964 5.22464 11.783 5.26065 11.6002 5.26049C11.4175 5.26065 11.2365 5.22464 11.0676 5.1545C10.8988 5.08437 10.7453 4.9815 10.6161 4.85177C10.4869 4.72204 10.3844 4.568 10.3146 4.39847C10.2447 4.22894 10.2088 4.04724 10.209 3.86378C10.2088 3.68032 10.2447 3.49862 10.3146 3.32909C10.3844 3.15956 10.4869 3.00552 10.6161 2.87579C10.7453 2.74606 10.8988 2.64319 11.0676 2.57306C11.2365 2.50292 11.4175 2.46691 11.6002 2.46707Z" fill="url(#paint0_linear_10_62)"/>
<path d="M16.0946 31.8903C24.1986 31.8903 23.6926 28.3622 23.6926 28.3622L23.6836 24.707H15.95V23.6096H26.7551C26.7551 23.6096 31.9409 24.2001 31.9409 15.9909C31.9409 7.7818 27.4146 8.07293 27.4146 8.07293H24.7134V11.8822C24.7134 11.8822 24.859 16.4262 20.2594 16.4262H12.5891C12.5891 16.4262 8.27975 16.3563 8.27975 20.6075V27.6366C8.27975 27.6366 7.62538 31.8903 16.0945 31.8903H16.0946ZM20.3589 29.4325C20.1761 29.4327 19.9951 29.3966 19.8263 29.3265C19.6574 29.2564 19.504 29.1535 19.3747 29.0238C19.2455 28.894 19.1431 28.74 19.0732 28.5705C19.0033 28.4009 18.9675 28.2192 18.9676 28.0358C18.9674 27.8523 19.0033 27.6706 19.0732 27.5011C19.143 27.3315 19.2455 27.1775 19.3747 27.0477C19.5039 26.918 19.6574 26.8151 19.8262 26.7449C19.9951 26.6748 20.1761 26.6388 20.3589 26.639C20.5416 26.6388 20.7226 26.6748 20.8915 26.7449C21.0603 26.8151 21.2138 26.9179 21.343 27.0477C21.4722 27.1774 21.5747 27.3314 21.6446 27.501C21.7144 27.6705 21.7503 27.8522 21.7501 28.0357C21.7503 28.2191 21.7144 28.4008 21.6446 28.5704C21.5747 28.7399 21.4722 28.8939 21.343 29.0236C21.2138 29.1534 21.0603 29.2563 20.8915 29.3264C20.7226 29.3965 20.5416 29.4325 20.3589 29.4324V29.4325Z" fill="url(#paint1_linear_10_62)"/>
<defs>
<linearGradient id="paint0_linear_10_62" x1="3.08589" y1="2.8765" x2="18.9671" y2="18.5379" gradientUnits="userSpaceOnUse">
<stop stop-color="#387EB8"/>
<stop offset="1" stop-color="#366994"/>
</linearGradient>
<linearGradient id="paint1_linear_10_62" x1="12.7962" y1="12.9733" x2="29.8477" y2="29.0297" gradientUnits="userSpaceOnUse">
<stop stop-color="#FFE052"/>
<stop offset="1" stop-color="#FFC331"/>
</linearGradient>
</defs>
</svg>
