<svg width="32" height="32" viewBox="0 0 32 32" fill="none" xmlns="http://www.w3.org/2000/svg">
<g clip-path="url(#clip0_9_37)">
<path fill-rule="evenodd" clip-rule="evenodd" d="M31.2667 7.93069C31.488 7.20269 31.2667 6.66669 30.2067 6.66669H26.7067C25.816 6.66669 25.4053 7.12935 25.1827 7.64002C25.1827 7.64002 23.4027 11.9014 20.8813 14.6694C20.0653 15.472 19.6947 15.7267 19.2493 15.7267C19.0267 15.7267 18.692 15.472 18.692 14.7427V7.93069C18.692 7.05602 18.4467 6.66669 17.7053 6.66669H12.2013C11.6453 6.66669 11.3107 7.07202 11.3107 7.45735C11.3107 8.28535 12.572 8.47735 12.7013 10.808V15.872C12.7013 16.9827 12.4973 17.184 12.052 17.184C10.8653 17.184 7.97867 12.9027 6.26533 8.00402C5.93333 7.05069 5.59733 6.66669 4.70267 6.66669H1.2C0.2 6.66669 0 7.12935 0 7.64002C0 8.54935 1.18667 13.0667 5.52667 19.0414C8.42 23.1214 12.4933 25.3334 16.204 25.3334C18.4293 25.3334 18.704 24.8427 18.704 23.996V20.912C18.704 19.9294 18.9147 19.7334 19.62 19.7334C20.14 19.7334 21.0293 19.9894 23.1067 21.956C25.48 24.288 25.8707 25.3334 27.2067 25.3334H30.7067C31.7067 25.3334 32.208 24.8427 31.92 23.872C31.6027 22.9067 30.4693 21.5054 28.9667 19.8427C28.1507 18.896 26.9267 17.876 26.5547 17.3654C26.036 16.7107 26.184 16.4187 26.5547 15.836C26.5547 15.836 30.8213 9.93469 31.2653 7.93069H31.2667Z" fill="#5082B9"/>
</g>
<defs>
<clipPath id="clip0_9_37">
<rect width="32" height="32" fill="white"/>
</clipPath>
</defs>
</svg>
