<svg width="32" height="32" viewBox="0 0 32 32" fill="none" xmlns="http://www.w3.org/2000/svg">
<path d="M26.6667 5.33337H7.99999C6.52933 5.33337 5.33333 6.52937 5.33333 8.00004V14.6667H7.99999V10.6667L16.5333 17.0667C16.7642 17.2396 17.0449 17.333 17.3333 17.333C17.6218 17.333 17.9024 17.2396 18.1333 17.0667L26.6667 10.6667V22.6667H16V25.3334H26.6667C28.1373 25.3334 29.3333 24.1374 29.3333 22.6667V8.00004C29.3333 6.52937 28.1373 5.33337 26.6667 5.33337ZM17.3333 14.3334L8.88799 8.00004H25.7787L17.3333 14.3334Z" fill="#51A6D8"/>
<path d="M2.66667 16H12V18.6667H2.66667V16ZM5.33334 20H13.3333V22.6667H5.33334V20ZM9.33334 24H14.6667V26.6667H9.33334V24Z" fill="#51A6D8"/>
</svg>
