<svg width="32" height="32" viewBox="0 0 32 32" fill="none" xmlns="http://www.w3.org/2000/svg">
<path d="M23.4221 7.67292C23.672 7.42303 24.0771 7.42303 24.327 7.67293C24.5769 7.92283 24.5769 8.328 24.327 8.57789L8.57761 24.3261C8.32786 24.5758 7.92297 24.5759 7.67314 24.3262C7.42318 24.0764 7.42311 23.6713 7.67299 23.4214L23.4221 7.67292Z" fill="#555555" fill-opacity="0.6"/>
<path d="M7.67283 7.6734C7.92278 7.42327 8.3282 7.42319 8.57825 7.67322L24.327 23.4208C24.577 23.6707 24.577 24.0759 24.3272 24.3259C24.0772 24.576 23.6718 24.5761 23.4218 24.3261L7.673 8.57854C7.42306 8.32862 7.42298 7.92342 7.67283 7.6734Z" fill="#555555" fill-opacity="0.6"/>
</svg>
